<svg width="80" height="80" viewBox="0 0 80 80" fill="none" xmlns="http://www.w3.org/2000/svg">
<rect width="80" height="80" fill="#E5BB67"/>
<path d="M32.4667 36.8666C30.3779 34.7777 29.3334 32.2666 29.3334 29.3333C29.3334 26.4 30.3779 23.8888 32.4667 21.8C34.5556 19.7111 37.0667 18.6666 40.0001 18.6666C42.9334 18.6666 45.4445 19.7111 47.5334 21.8C49.6223 23.8888 50.6667 26.4 50.6667 29.3333C50.6667 32.2666 49.6223 34.7777 47.5334 36.8666C45.4445 38.9555 42.9334 40 40.0001 40C37.0667 40 34.5556 38.9555 32.4667 36.8666ZM18.6667 61.3333V53.8666C18.6667 52.3555 19.0561 50.9671 19.8347 49.7013C20.6134 48.4355 21.6463 47.4684 22.9334 46.8C25.689 45.4222 28.489 44.3893 31.3334 43.7013C34.1779 43.0133 37.0667 42.6684 40.0001 42.6666C42.9334 42.6648 45.8223 43.0097 48.6667 43.7013C51.5112 44.3928 54.3112 45.4257 57.0667 46.8C58.3556 47.4666 59.3894 48.4337 60.1681 49.7013C60.9467 50.9688 61.3352 52.3573 61.3334 53.8666V61.3333H18.6667Z" fill="#19150F"/>
</svg>
